<svg xmlns="http://www.w3.org/2000/svg" width="268" height="269" viewBox="0 0 268 269">
  <g id="circle-safety" transform="translate(-709 -2163)">
    <g id="circle-text" transform="translate(-337.5 1715)">
      <ellipse id="Ellipse_3" data-name="Ellipse 3" cx="134" cy="134.5" rx="134" ry="134.5" transform="translate(1046.5 448)" fill="#ae78b2"/>
      <g id="Safety" transform="translate(1116.321 646.094)" style="isolation: isolate">
        <path id="Path_669" data-name="Path 669" d="M14.19-18.084c-.66-3.6-2.508-5.907-6.633-5.907-3.927,0-6.336,2.31-6.336,5.973,0,7.59,9.6,6.963,9.6,12.177A2.7,2.7,0,0,1,7.821-3c-2.112,0-3-1.221-3.465-3.63l-3.63.627C1.485-1.749,3.465.3,7.689.3s6.93-2.31,6.93-6.435c0-7.755-9.7-7.161-9.7-12.111A2.373,2.373,0,0,1,7.59-20.691c1.848,0,2.706,1.254,3.2,3.267ZM32.175,0,26.664-23.694H21.417L16.038,0H20l1.221-6.072H26.9L28.149,0ZM23.991-19.866h.1L26.2-9.537h-4.29ZM38.61,0V-10.527h6.237v-3.432H38.61V-20.13h8.382v-3.564H34.683V0ZM62.04,0V-3.564H53.427v-6.963h6.1v-3.432h-6.1V-20.13h8.184v-3.564H49.5V0ZM72.072,0V-20.13h4.884v-3.564H63.294v3.564h4.884V0ZM87.45,0V-9.57l5.94-14.124H89.3L85.5-14.058h-.066l-3.6-9.636H77.682L83.523-9.57V0Z" transform="translate(17 24)" fill="#fff"/>
      </g>
    </g>
    <g id="icon-safety" transform="translate(48.152 1927.739)">
      <path id="Path_605" data-name="Path 605" d="M789.639,279.256c-5.945,3.041-16.679,8.408-21.757,10.254-4.9,1.779-16.224,4.537-22.534,6.023v36.6a44.214,44.214,0,0,0,4.311,18.3,76.4,76.4,0,0,0,10.877,16.893,120.34,120.34,0,0,0,29.1,24.99,120.341,120.341,0,0,0,29.1-24.99,76.4,76.4,0,0,0,10.877-16.893,44.216,44.216,0,0,0,4.311-18.3v-36.6c-7.725-1.819-17.906-4.341-22.536-6.023C806.3,287.653,795.578,282.288,789.639,279.256Zm-5.832,21.263a7.5,7.5,0,0,1,5.725-2.325c2.854,0,4.789,1,5.751,2.978a20.25,20.25,0,0,1,1.45,8.578,66.009,66.009,0,0,1-.35,6.7l-2.15,24.656a19.467,19.467,0,0,1-1.5,6.752,3.944,3.944,0,0,1-3.8,2.349,3.8,3.8,0,0,1-3.751-2.276,22.694,22.694,0,0,1-1.5-6.927l-1.6-23.956c-.293-4.643-.451-8.026-.451-10.053A9.144,9.144,0,0,1,783.807,300.519Zm10.676,71.393a7.7,7.7,0,0,1-5.251,2,7.91,7.91,0,0,1-5.325-1.98,6.956,6.956,0,0,1-2.276-5.521,7.43,7.43,0,0,1,7.5-7.452,7.443,7.443,0,0,1,5.378,2.175,7.142,7.142,0,0,1,2.226,5.277A7.012,7.012,0,0,1,794.483,371.912Z" transform="translate(5.486 5.483)" fill="#fff"/>
      <path id="Path_606" data-name="Path 606" d="M850.22,289.743c-2.22-.5-21.87-5-28.1-7.263s-23.545-11.217-25.5-12.233a4.511,4.511,0,0,0-4.086.006c-1.953,1.013-19.259,9.962-25.49,12.227s-25.885,6.758-28.108,7.264a3.776,3.776,0,0,0-3.085,3.575V337.28c0,14.68,7,30.464,20.244,45.644a137.743,137.743,0,0,0,36.362,29.332,4.466,4.466,0,0,0,4.229.011,137.815,137.815,0,0,0,36.385-29.343c13.243-15.18,20.242-30.964,20.242-45.644V293.319A3.781,3.781,0,0,0,850.22,289.743Zm-4.005,5.7V337.28c0,16.707-10.181,31.884-18.722,41.674a132.107,132.107,0,0,1-32.914,26.964,132.107,132.107,0,0,1-32.914-26.964c-8.541-9.79-18.721-24.967-18.721-41.674V295.438c6.627-1.53,21.144-4.975,26.751-7.01,5.744-2.089,19.042-8.837,24.885-11.845,5.845,3.01,19.146,9.758,24.886,11.845C825.076,290.465,839.591,293.907,846.215,295.439Z" transform="translate(0)" fill="#fff"/>
    </g>
  </g>
</svg>
